<?xml version="1.0" encoding="iso-8859-1"?>
<!-- Uploaded to: SVG Repo, www.svgrepo.com, Generator: SVG Repo Mixer Tools -->
<svg fill="#000000" height="800px" width="800px" version="1.1" id="Layer_1" xmlns="http://www.w3.org/2000/svg" xmlns:xlink="http://www.w3.org/1999/xlink" 
	 viewBox="0 0 511.999 511.999" xml:space="preserve">
<g>
	<g>
		<g>
			<path d="M352.988,474.617h-17.507v-76.636c0-4.228,2.692-7.975,6.7-9.323c31.474-10.582,51.534-42.201,47.7-75.183l-6.85-58.895
				c-1.216-10.449-10.064-18.327-20.582-18.327h-61.399v-7.289c0-25.195-14.76-48.342-37.604-58.97
				c-3.264-1.518-5.373-4.825-5.373-8.425V74.142c5.008-2.096,8.535-7.048,8.535-12.808V46.411c0-5.76-3.527-10.71-8.535-12.808
				v-6.625C258.073,12.102,245.971,0,231.095,0h-39.49c-14.875,0-26.978,12.102-26.978,26.978v6.624
				c-5.007,2.096-8.535,7.048-8.535,12.808v14.922c0,5.76,3.527,10.712,8.535,12.808v87.427c0,3.6-2.109,6.907-5.373,8.426
				c-22.843,10.628-37.604,33.775-37.604,58.97v253.407c0,16.338,13.291,29.628,29.628,29.628h201.709
				c10.306,0,18.691-8.385,18.691-18.691C371.679,483.001,363.294,474.617,352.988,474.617z M373.976,315.325
				c2.96,25.446-12.471,49.84-36.707,58.089c-13.526,3.588-20.372,4.806-27.008,4.806c-6.636,0-13.484-1.217-27.013-4.807
				c-24.235-8.25-39.663-32.643-36.703-58.088l1.375-11.825h124.681L373.976,315.325z M300.661,393.566
				c3.281,0.435,6.422,0.664,9.599,0.664c3.178,0,6.317-0.228,9.598-0.664c-0.249,1.441-0.389,2.915-0.389,4.415v76.636h-18.42
				v-76.636C301.05,396.481,300.91,395.007,300.661,393.566z M230.296,325.732h-49.53c-4.421,0-8.006,3.584-8.006,8.006
				c0,4.421,3.584,8.006,8.006,8.006h52.395c4.704,15.666,14.743,29.441,28.44,38.653l0.009,3.785l-100.501,0.017l-0.017-76.879
				h70.266l-0.716,6.157C230.161,317.595,230.055,321.693,230.296,325.732z M362.449,252.264c2.39,0,4.402,1.791,4.677,4.166
				l3.612,31.059H249.781l3.612-31.059c0.276-2.375,2.287-4.166,4.678-4.166H362.449z M180.638,26.978
				c0-6.048,4.92-10.967,10.967-10.967h39.49c6.048,0,10.967,4.92,10.967,10.967v5.556h-61.423V26.978z M172.103,48.545h78.493V59.2
				h-78.493V48.545z M242.063,75.211V85.58h-61.424V75.211H242.063z M137.662,228.963c0-18.992,11.127-36.442,28.346-44.454
				c8.887-4.135,14.63-13.141,14.63-22.943v-59.975h61.424v59.976c0,9.802,5.743,18.808,14.629,22.942
				c17.221,8.012,28.347,25.461,28.347,44.453v7.289h-26.967c-6.38,0-12.133,2.911-15.954,7.523H137.662V228.963z M249.055,495.989
				h-97.776c-7.509,0-13.617-6.109-13.617-13.617V259.787h99.221l-3.665,31.521h-72.127c-8.819,0-15.994,7.175-15.994,15.994v76.896
				c0,8.819,7.175,15.994,15.994,15.994H261.61c7.433,0,13.681-5.105,15.466-11.989c0.422,0.151,0.836,0.313,1.262,0.456
				c4.009,1.348,6.701,5.094,6.701,9.323v76.636h-17.507c-10.306,0-18.692,8.385-18.692,18.691
				C248.841,494.221,248.928,495.111,249.055,495.989z M352.988,495.989h-85.457c-1.478,0-2.68-1.202-2.68-2.68
				c0-1.477,1.202-2.68,2.68-2.68h85.457c1.478,0,2.68,1.203,2.68,2.68C355.668,494.787,354.466,495.989,352.988,495.989z"/>
			<path d="M231.996,414.863h-41.292c-5.817,0-10.55,4.733-10.55,10.55v18.576c0,5.817,4.733,10.55,10.55,10.55h41.292
				c5.817,0,10.55-4.733,10.55-10.55v-18.576C242.546,419.596,237.813,414.863,231.996,414.863z M226.535,438.528h-30.37v-7.653
				h30.37V438.528z"/>
			<path d="M195.507,365.769h31.685c4.421,0,8.006-3.584,8.006-8.006c0-4.421-3.584-8.006-8.006-8.006h-31.685
				c-4.421,0-8.006,3.584-8.006,8.006C187.502,362.184,191.086,365.769,195.507,365.769z"/>
		</g>
	</g>
</g>
</svg>