<svg width="33" height="35" viewBox="0 0 33 35" fill="none" xmlns="http://www.w3.org/2000/svg">
<path d="M3.23054 33.4963C2.61577 32.8532 2.27264 31.9858 2.25835 31.0735L2.25835 6.60614L30.9096 6.60614L30.9096 31.0735C30.9239 31.9858 30.5664 32.8383 29.9517 33.4814C29.3369 34.1245 28.5077 34.4834 27.6356 34.4983H5.56096C4.68884 34.5133 3.87391 34.1394 3.25914 33.4963H3.23054ZM3.28773 7.68295L3.28773 31.0735C3.28773 32.3298 4.33141 33.4215 5.53236 33.4215H27.607C28.2074 33.4215 28.765 33.1673 29.1796 32.7336C29.5942 32.2999 29.8516 31.7016 29.8373 31.0885L29.8802 7.68295H3.28773Z" fill="#D9D9D9"/>
<path d="M2.44085 6.53357L1.32568 4.35006C0.825285 3.37794 0.99685 2.68998 1.21131 2.28618C1.88327 1.1346 3.75617 1 4.52821 1L28.5615 1.01496C29.5337 1.01496 30.849 1.28416 31.5496 2.01698C31.8927 2.37592 32.3788 3.15361 31.764 4.36501L30.6489 6.54853L2.44085 6.53357ZM30.8347 2.79467C30.4487 2.39087 29.5194 2.10672 28.5758 2.10672L4.54251 2.09176C3.34156 2.09176 2.36936 2.39087 2.11202 2.83954C1.98334 3.06387 2.02624 3.40785 2.24069 3.84156L3.06992 5.45677L30.0484 5.47173L30.8776 3.85652C31.1779 3.27325 31.0063 2.97414 30.8347 2.79467Z" fill="#D9D9D9"/>
<path d="M3.23054 33.4963C2.61577 32.8532 2.27264 31.9858 2.25835 31.0735L2.25835 6.60614L30.9096 6.60614L30.9096 31.0735C30.9239 31.9858 30.5664 32.8383 29.9517 33.4814C29.3369 34.1245 28.5077 34.4834 27.6356 34.4983H5.56096C4.68884 34.5133 3.87391 34.1394 3.25914 33.4963H3.23054ZM3.28773 7.68295L3.28773 31.0735C3.28773 32.3298 4.33141 33.4215 5.53236 33.4215H27.607C28.2074 33.4215 28.765 33.1673 29.1796 32.7336C29.5942 32.2999 29.8516 31.7016 29.8373 31.0885L29.8802 7.68295H3.28773Z" stroke="#D9D9D9" stroke-miterlimit="10"/>
<path d="M2.44085 6.53357L1.32568 4.35006C0.825285 3.37794 0.99685 2.68998 1.21131 2.28618C1.88327 1.1346 3.75617 1 4.52821 1L28.5615 1.01496C29.5337 1.01496 30.849 1.28416 31.5496 2.01698C31.8927 2.37592 32.3788 3.15361 31.764 4.36501L30.6489 6.54853L2.44085 6.53357ZM30.8347 2.79467C30.4487 2.39087 29.5194 2.10672 28.5758 2.10672L4.54251 2.09176C3.34156 2.09176 2.36936 2.39087 2.11202 2.83954C1.98334 3.06387 2.02624 3.40785 2.24069 3.84156L3.06992 5.45677L30.0484 5.47173L30.8776 3.85652C31.1779 3.27325 31.0063 2.97414 30.8347 2.79467Z" stroke="#D9D9D9" stroke-miterlimit="10"/>
</svg>
