<svg width="33" height="35" viewBox="0 0 33 35" fill="none" xmlns="http://www.w3.org/2000/svg">
<path d="M29.6228 2.00256C30.2376 2.64565 30.5807 3.51307 30.595 4.42536L30.595 28.8927L2.14912 28.751L1.94377 4.42537C1.92948 3.51307 2.2869 2.66061 2.90168 2.01752C3.51645 1.37443 4.34567 1.01548 5.21779 1.00053L27.2924 1.00053C28.1645 0.985573 28.9794 1.35947 29.5942 2.00256H29.6228ZM29.5656 27.8159L29.5656 4.42537C29.5656 3.16909 28.5219 2.07734 27.321 2.07734L5.24638 2.07734C4.64591 2.07734 4.08833 2.33158 3.67371 2.76529C3.2591 3.19901 3.00175 3.79723 3.01605 4.41041L2.97316 27.8159L29.5656 27.8159Z" fill="#D9D9D9"/>
<path d="M30.595 28.8927L31.733 31.0071C32.2334 31.9792 32.0618 32.6672 31.8474 33.071C31.1754 34.2226 29.3025 34.3572 28.5305 34.3572L4.4972 34.3422C3.525 34.3422 2.20967 34.073 1.50912 33.3402C1.16599 32.9813 0.679892 32.2036 1.29466 30.9922L2.14912 28.751L30.595 28.8927ZM2.22397 32.5625C2.60999 32.9663 3.5393 33.2505 4.4829 33.2505L28.5162 33.2654C29.7171 33.2654 30.6893 32.9663 30.9467 32.5176C31.0754 32.2933 31.0325 31.9493 30.818 31.5156L29.9888 29.9004L3.01031 29.8854L2.18108 31.5007C1.88084 32.0839 2.05241 32.383 2.22397 32.5625Z" fill="#D9D9D9"/>
<path d="M30.595 28.8927L30.595 4.42536C30.5807 3.51307 30.2376 2.64565 29.6228 2.00256H29.5942C28.9794 1.35947 28.1645 0.985573 27.2924 1.00053L5.21779 1.00053C4.34567 1.01548 3.51645 1.37443 2.90168 2.01752C2.2869 2.66061 1.92948 3.51307 1.94377 4.42536L2.14912 28.751M30.595 28.8927L2.14912 28.751M30.595 28.8927L31.733 31.0071C32.2334 31.9792 32.0618 32.6672 31.8474 33.071C31.1754 34.2226 29.3025 34.3572 28.5305 34.3572L4.4972 34.3422C3.525 34.3422 2.20967 34.073 1.50912 33.3402C1.16599 32.9813 0.679892 32.2036 1.29466 30.9922L2.14912 28.751M29.5656 27.8159L29.5656 4.42536C29.5656 3.16909 28.5219 2.07734 27.321 2.07734L5.24638 2.07733C4.64591 2.07733 4.08832 2.33158 3.67371 2.76529C3.2591 3.199 3.00175 3.79723 3.01605 4.41041L2.97316 27.8159L29.5656 27.8159ZM2.22397 32.5625C2.60999 32.9663 3.5393 33.2505 4.4829 33.2505L28.5162 33.2654C29.7171 33.2654 30.6893 32.9663 30.9467 32.5176C31.0754 32.2933 31.0325 31.9493 30.818 31.5156L29.9888 29.9004L3.01031 29.8854L2.18108 31.5007C1.88084 32.0839 2.05241 32.383 2.22397 32.5625Z" stroke="#D9D9D9" stroke-miterlimit="10"/>
</svg>
