<svg width="34" height="34" viewBox="0 0 34 34" fill="none" xmlns="http://www.w3.org/2000/svg">
<path d="M1.95785 3.548C2.57262 2.90491 3.40184 2.54597 4.27396 2.53102L27.6639 2.53102L27.5284 32.2872L4.27396 32.502C3.40185 32.517 2.58692 32.1431 1.97215 31.5C1.35738 30.8569 1.01424 29.9895 0.999945 29.0772V5.98576C0.985647 5.07347 1.34307 4.221 1.95785 3.57791V3.548ZM26.6345 3.60782L4.27396 3.60782C3.07301 3.60782 2.02933 4.69958 2.02933 5.95585L2.02933 29.0473C2.02933 29.6754 2.27238 30.2587 2.68699 30.6924C3.10161 31.1261 3.67349 31.3953 4.25967 31.3804L26.6345 31.4252V3.60782Z" fill="#D9D9D9"/>
<path d="M27.6639 2.53102L29.6852 1.34058C30.6145 0.817131 31.2721 0.996599 31.6582 1.22093C32.759 1.92385 32.8877 3.88303 32.8877 4.69063L32.8734 29.831C32.8734 30.848 32.616 32.2239 31.9155 32.9567C31.5724 33.3157 30.8289 33.8242 29.6709 33.1811L27.5284 32.2872L27.6639 2.53102ZM31.1721 32.2089C31.5581 31.8051 31.8297 30.833 31.8297 29.846L31.844 4.70559C31.844 3.44932 31.5581 2.43234 31.1292 2.16314C30.9147 2.02854 30.5859 2.0734 30.1713 2.29774L28.6272 3.16516L28.6129 31.3864L30.157 32.2538C30.7145 32.5679 31.0005 32.3884 31.1721 32.2089Z" fill="#D9D9D9"/>
<path d="M27.6639 2.53102L4.27396 2.53102C3.40184 2.54597 2.57262 2.90491 1.95785 3.548V3.57791C1.34308 4.221 0.985647 5.07347 0.999944 5.98576V29.0772C1.01424 29.9895 1.35738 30.8569 1.97215 31.5C2.58692 32.1431 3.40185 32.517 4.27396 32.502L27.5284 32.2872M27.6639 2.53102L27.5284 32.2872M27.6639 2.53102L29.6852 1.34058C30.6145 0.817131 31.2721 0.996599 31.6582 1.22093C32.759 1.92385 32.8877 3.88303 32.8877 4.69063L32.8734 29.831C32.8734 30.848 32.616 32.2239 31.9155 32.9567C31.5724 33.3157 30.8289 33.8242 29.6709 33.1811L27.5284 32.2872M26.6345 3.60782L4.27396 3.60782C3.07301 3.60782 2.02933 4.69958 2.02933 5.95585L2.02933 29.0473C2.02933 29.6754 2.27238 30.2587 2.68699 30.6924C3.10161 31.1261 3.67349 31.3953 4.25967 31.3804L26.6345 31.4252V3.60782ZM31.1721 32.2089C31.5581 31.8051 31.8297 30.833 31.8297 29.846L31.844 4.70559C31.844 3.44932 31.5581 2.43234 31.1292 2.16314C30.9147 2.02854 30.5859 2.0734 30.1713 2.29774L28.6272 3.16516L28.6129 31.3864L30.157 32.2538C30.7145 32.5679 31.0005 32.3884 31.1721 32.2089Z" stroke="#D9D9D9" stroke-miterlimit="10"/>
</svg>
