<svg width="34" height="34" viewBox="0 0 34 34" fill="none" xmlns="http://www.w3.org/2000/svg">
<path d="M31.9298 30.9408C31.3151 31.5839 30.4859 31.9428 29.6137 31.9578L6.22381 31.9577L6.35927 2.20153L29.6137 1.98672C30.4858 1.97177 31.3008 2.34566 31.9155 2.98875C32.5303 3.63184 32.8735 4.49926 32.8878 5.41155V28.503C32.902 29.4153 32.5446 30.2678 31.9298 30.9109V30.9408ZM7.2532 30.8809L29.6137 30.8809C30.8147 30.8809 31.8584 29.7892 31.8584 28.5329L31.8584 5.44146C31.8584 4.81333 31.6153 4.23006 31.2007 3.79635C30.7861 3.36263 30.2142 3.09343 29.628 3.10839L7.2532 3.06352L7.2532 30.8809Z" fill="#D9D9D9"/>
<path d="M6.22381 31.9577L4.20253 33.1482C3.27323 33.6716 2.61556 33.4922 2.22955 33.2678C1.12867 32.5649 1 30.6057 1 29.7981L1.0143 4.65777C1.0143 3.64079 1.27165 2.26487 1.9722 1.53205C2.31533 1.17311 3.05877 0.664619 4.21683 1.30771L6.35927 2.20153L6.22381 31.9577ZM2.71564 2.27983C2.32963 2.68363 2.05798 3.65574 2.05798 4.64281L2.04368 29.7832C2.04368 31.0395 2.32962 32.0564 2.75853 32.3256C2.97299 32.4602 3.30182 32.4154 3.71643 32.191L5.26051 31.3236L5.27481 3.10238L3.73073 2.23496C3.17315 1.92089 2.88721 2.10036 2.71564 2.27983Z" fill="#D9D9D9"/>
<path d="M6.22381 31.9577L29.6137 31.9578C30.4859 31.9428 31.3151 31.5839 31.9298 30.9408V30.9109C32.5446 30.2678 32.902 29.4153 32.8878 28.503V5.41155C32.8735 4.49926 32.5303 3.63184 31.9155 2.98875C31.3008 2.34566 30.4858 1.97176 29.6137 1.98672L6.35927 2.20153M6.22381 31.9577L6.35927 2.20153M6.22381 31.9577L4.20253 33.1482C3.27323 33.6716 2.61556 33.4922 2.22955 33.2678C1.12867 32.5649 1 30.6057 1 29.7981L1.0143 4.65777C1.0143 3.64079 1.27165 2.26487 1.9722 1.53204C2.31533 1.17311 3.05877 0.664619 4.21683 1.30771L6.35927 2.20153M7.2532 30.8809L29.6137 30.8809C30.8147 30.8809 31.8584 29.7892 31.8584 28.5329L31.8584 5.44146C31.8584 4.81333 31.6153 4.23006 31.2007 3.79635C30.7861 3.36264 30.2142 3.09343 29.628 3.10839L7.2532 3.06352L7.2532 30.8809ZM2.71564 2.27983C2.32963 2.68363 2.05798 3.65574 2.05798 4.64281L2.04368 29.7832C2.04368 31.0395 2.32962 32.0564 2.75853 32.3256C2.97299 32.4602 3.30182 32.4154 3.71643 32.191L5.26051 31.3236L5.27481 3.10238L3.73073 2.23496C3.17315 1.92089 2.88721 2.10036 2.71564 2.27983Z" stroke="#D9D9D9" stroke-miterlimit="10"/>
</svg>
