<svg width="222" height="66" viewBox="0 0 222 66" fill="none" xmlns="http://www.w3.org/2000/svg">
<path d="M9.96 45.48L0.76 28.44H5.16L11.4 41.6L9.12 41.52L14.84 28.44H19L10.16 45.48H9.96ZM26.3256 28.44L26.6856 33.24L26.4856 32.6C26.9123 31.5867 27.5256 30.7333 28.3256 30.04C29.1523 29.32 30.0056 28.7733 30.8856 28.4C31.7923 28 32.579 27.8 33.2456 27.8L33.0456 31.48C31.7923 31.4 30.6856 31.64 29.7256 32.2C28.7923 32.76 28.0456 33.5067 27.4856 34.44C26.9523 35.3733 26.6856 36.3733 26.6856 37.44V45H23.0056V28.44H26.3256ZM41.3647 28.44L41.6847 32.48L41.5247 31.84C42.058 30.6133 42.9247 29.64 44.1247 28.92C45.3247 28.1733 46.7114 27.8 48.2847 27.8C49.858 27.8 51.138 28.2667 52.1247 29.2C53.138 30.1067 53.658 31.2933 53.6847 32.76V45H49.9247V34.08C49.898 33.1733 49.6314 32.44 49.1247 31.88C48.6447 31.2933 47.8847 31 46.8447 31C45.8847 31 45.018 31.2667 44.2447 31.8C43.4714 32.3333 42.858 33.0667 42.4047 34C41.978 34.9333 41.7647 36.0133 41.7647 37.24V45H38.0447V28.44H41.3647ZM65.6741 45.48C64.4207 45.48 63.2074 45.3467 62.0341 45.08C60.8874 44.8133 59.9274 44.48 59.1541 44.08C58.4074 43.68 57.9407 43.2933 57.7541 42.92C57.8874 42.2533 58.0207 41.3067 58.1541 40.08C58.3141 38.8267 58.4074 37.9067 58.4341 37.32C58.7274 37.08 59.1007 36.9333 59.5541 36.88C59.6607 39.0133 60.2074 40.6533 61.1941 41.8C62.1807 42.92 63.6074 43.48 65.4741 43.48C67.4207 43.48 68.9674 42.9067 70.1141 41.76C71.2874 40.6133 71.8741 39.1467 71.8741 37.36C71.8741 36.48 71.7141 35.7333 71.3941 35.12C71.1007 34.48 70.6874 33.9333 70.1541 33.48C69.6474 33 68.9141 32.44 67.9541 31.8C66.6207 30.8667 65.5407 30.0533 64.7141 29.36C63.9141 28.64 63.2741 27.84 62.7941 26.96C62.3141 26.0533 62.0741 25.0267 62.0741 23.88C62.0741 22.4133 62.4741 21.1467 63.2741 20.08C64.1007 18.9867 65.2074 18.16 66.5941 17.6C68.0074 17.0133 69.5807 16.72 71.3141 16.72C72.9941 16.72 74.5274 16.9733 75.9141 17.48C77.3007 17.96 78.1807 18.48 78.5541 19.04C77.4874 21.44 76.8607 23.0533 76.6741 23.88C76.2741 24.04 75.7941 24.12 75.2341 24.12C75.5807 23.1867 75.7541 22.3733 75.7541 21.68C75.7541 20.6133 75.3407 19.8 74.5141 19.24C73.7141 18.68 72.6607 18.4 71.3541 18.4C69.4874 18.4 68.1007 18.9067 67.1941 19.92C66.3141 20.9333 65.8741 22.1067 65.8741 23.44C65.8741 24.72 66.2741 25.8 67.0741 26.68C67.8741 27.56 68.9141 28.3867 70.1941 29.16C71.5807 30.0133 72.6741 30.76 73.4741 31.4C74.2741 32.0133 74.9407 32.7867 75.4741 33.72C76.0341 34.6533 76.3141 35.7733 76.3141 37.08C76.3141 38.8133 75.8341 40.32 74.8741 41.6C73.9141 42.8533 72.6207 43.8133 70.9941 44.48C69.3941 45.1467 67.6207 45.48 65.6741 45.48ZM104.386 0.679998C105.613 0.679998 106.8 0.893332 107.946 1.32C109.093 1.74666 110.04 2.42666 110.786 3.36C111.56 4.26666 111.946 5.42666 111.946 6.84C111.946 7.16 111.92 7.50667 111.866 7.88C111.813 8.22667 111.746 8.49333 111.666 8.68C109.826 6.01333 107.106 4.68 103.506 4.68C101.666 4.68 99.8396 5.45333 98.0263 7C96.2129 8.54667 94.5063 10.8133 92.9063 13.8C91.3063 16.76 89.9196 20.3067 88.7463 24.44C87.8663 27.5867 87.1596 30.2 86.6263 32.28C86.1196 34.36 85.5463 36.8667 84.9063 39.8C86.7996 37.16 88.8796 34.48 91.1463 31.76C93.4396 29.0133 94.7863 27.64 95.1863 27.64C95.5596 27.64 96.1996 27.8133 97.1063 28.16C98.0396 28.48 98.6129 28.84 98.8263 29.24C96.4263 31.0533 93.8796 33.2667 91.1863 35.88C91.2929 38.2 91.6929 39.9733 92.3863 41.2C93.0796 42.4 94.0263 43 95.2263 43C96.1863 43 97.2663 42.6133 98.4663 41.84C99.6929 41.0667 100.826 40.0267 101.866 38.72C102.906 37.3867 103.666 35.9467 104.146 34.4C104.493 34.4 104.746 34.52 104.906 34.76C105.093 34.9733 105.186 35.2533 105.186 35.6C105.186 36.5867 104.586 37.88 103.386 39.48C102.186 41.08 100.733 42.48 99.0263 43.68C97.3196 44.88 95.7063 45.48 94.1863 45.48C92.6396 45.48 91.3996 44.8533 90.4663 43.6C89.5596 42.32 88.9863 40.5733 88.7463 38.36C86.8263 40.36 84.9329 42.4933 83.0663 44.76C83.0129 44.84 82.9063 44.9867 82.7463 45.2C82.5863 45.44 82.4529 45.56 82.3463 45.56C82.1329 45.56 81.8396 45.3867 81.4663 45.04C81.1196 44.72 80.9329 44.44 80.9063 44.2C80.8529 43.4267 81.4129 40.36 82.5863 35C83.7863 29.64 84.8529 25.2933 85.7863 21.96C87.0663 17.4267 88.6663 13.5733 90.5863 10.4C92.5063 7.2 94.6396 4.78666 96.9863 3.16C99.3596 1.50667 101.826 0.679998 104.386 0.679998ZM114.552 28.28C115.192 28.28 115.938 28.36 116.792 28.52C117.672 28.6533 118.152 28.88 118.232 29.2C117.805 31.28 117.285 33.6933 116.672 36.44C116.058 39.1867 115.512 41.44 115.032 43.2C113.405 49.3333 111.005 54.5867 107.832 58.96C104.685 63.3333 100.312 65.52 94.7116 65.52C92.2049 65.52 90.3382 65.0533 89.1116 64.12C87.8849 63.2133 87.2716 62.08 87.2716 60.72C87.2716 59.8133 87.5516 59 88.1116 58.28C88.9116 59.2933 90.0449 60.1333 91.5116 60.8C92.9782 61.4667 94.6849 61.8 96.6316 61.8C98.9249 61.8 100.965 61.2267 102.752 60.08C104.538 58.9333 106.178 56.9867 107.672 54.24C109.165 51.4933 110.552 47.7467 111.832 43C111.032 43.56 110.218 44.04 109.392 44.44C108.565 44.8133 107.885 45 107.352 45C106.818 45 106.205 44.84 105.512 44.52C104.818 44.1733 104.218 43.7333 103.712 43.2C103.232 42.6667 102.992 42.1067 102.992 41.52C103.098 40.9867 103.312 39.7733 103.632 37.88C104.112 34.6533 104.618 31.8533 105.152 29.48C105.312 28.7333 105.872 28.36 106.832 28.36C107.152 28.36 107.565 28.3867 108.072 28.44C108.578 28.4667 108.912 28.5067 109.072 28.56C108.645 30.5067 108.072 33.4667 107.352 37.44C107.112 38.9333 106.912 40.04 106.752 40.76C106.725 41.3467 106.885 41.84 107.232 42.24C107.578 42.6133 107.978 42.8 108.432 42.8C108.992 42.8 109.685 42.5333 110.512 42C111.365 41.44 112.005 40.88 112.432 40.32L113.192 36C113.912 32.08 114.365 29.5067 114.552 28.28ZM152.642 15.56C155.069 15.56 157.122 15.9733 158.802 16.8C160.482 17.6 161.762 18.7467 162.642 20.24C163.522 21.7067 163.962 23.4533 163.962 25.48C163.962 26.68 163.775 27.8933 163.402 29.12C163.055 30.32 162.482 31.4133 161.682 32.4C160.909 33.3867 159.855 34.1867 158.522 34.8C157.215 35.3867 155.602 35.68 153.682 35.68H149.522V45H143.722V15.56H152.642ZM153.642 30.04C154.522 30.04 155.255 29.8933 155.842 29.6C156.429 29.28 156.882 28.8933 157.202 28.44C157.549 27.96 157.789 27.4667 157.922 26.96C158.082 26.4533 158.162 26.0133 158.162 25.64C158.162 25.3467 158.109 24.96 158.002 24.48C157.922 23.9733 157.735 23.4667 157.442 22.96C157.149 22.4533 156.695 22.0267 156.082 21.68C155.495 21.3333 154.695 21.16 153.682 21.16H149.522V30.04H153.642ZM167.352 30.32C167.352 28.2933 167.738 26.3733 168.512 24.56C169.285 22.7467 170.352 21.1467 171.712 19.76C173.098 18.3467 174.698 17.24 176.512 16.44C178.325 15.64 180.272 15.24 182.352 15.24C184.405 15.24 186.338 15.64 188.152 16.44C189.965 17.24 191.565 18.3467 192.952 19.76C194.365 21.1467 195.458 22.7467 196.232 24.56C197.032 26.3733 197.432 28.2933 197.432 30.32C197.432 32.4 197.032 34.3467 196.232 36.16C195.458 37.9733 194.365 39.5733 192.952 40.96C191.565 42.32 189.965 43.3867 188.152 44.16C186.338 44.9333 184.405 45.32 182.352 45.32C180.272 45.32 178.325 44.9333 176.512 44.16C174.698 43.3867 173.098 42.32 171.712 40.96C170.352 39.5733 169.285 37.9733 168.512 36.16C167.738 34.3467 167.352 32.4 167.352 30.32ZM173.352 30.32C173.352 31.6267 173.578 32.8533 174.032 34C174.512 35.12 175.165 36.12 175.992 37C176.845 37.8533 177.818 38.52 178.912 39C180.032 39.48 181.245 39.72 182.552 39.72C183.805 39.72 184.965 39.48 186.032 39C187.125 38.52 188.072 37.8533 188.872 37C189.672 36.12 190.298 35.12 190.752 34C191.205 32.8533 191.432 31.6267 191.432 30.32C191.432 28.9867 191.192 27.7467 190.712 26.6C190.258 25.4533 189.618 24.4533 188.792 23.6C187.992 22.72 187.045 22.04 185.952 21.56C184.858 21.08 183.672 20.84 182.392 20.84C181.112 20.84 179.925 21.08 178.832 21.56C177.738 22.04 176.778 22.72 175.952 23.6C175.125 24.4533 174.485 25.4533 174.032 26.6C173.578 27.7467 173.352 28.9867 173.352 30.32ZM218.934 22.68C217.814 22.0667 216.667 21.56 215.494 21.16C214.347 20.76 213.267 20.56 212.254 20.56C211.001 20.56 210.014 20.8133 209.294 21.32C208.574 21.8267 208.214 22.5867 208.214 23.6C208.214 24.2933 208.481 24.92 209.014 25.48C209.574 26.0133 210.281 26.4933 211.134 26.92C212.014 27.3467 212.921 27.7333 213.854 28.08C214.707 28.4 215.547 28.7867 216.374 29.24C217.227 29.6667 217.987 30.2133 218.654 30.88C219.321 31.52 219.854 32.3333 220.254 33.32C220.654 34.28 220.854 35.4667 220.854 36.88C220.854 38.3733 220.467 39.76 219.694 41.04C218.921 42.32 217.787 43.36 216.294 44.16C214.801 44.9333 212.961 45.32 210.774 45.32C209.654 45.32 208.507 45.2133 207.334 45C206.187 44.76 205.054 44.4133 203.934 43.96C202.814 43.48 201.734 42.88 200.694 42.16L203.254 37.64C203.947 38.1467 204.694 38.6 205.494 39C206.321 39.3733 207.147 39.6667 207.974 39.88C208.801 40.0933 209.561 40.2 210.254 40.2C210.947 40.2 211.641 40.1067 212.334 39.92C213.054 39.7067 213.641 39.36 214.094 38.88C214.574 38.4 214.814 37.7333 214.814 36.88C214.814 36.2933 214.614 35.76 214.214 35.28C213.841 34.8 213.321 34.36 212.654 33.96C212.014 33.56 211.307 33.2133 210.534 32.92C209.627 32.5733 208.694 32.1733 207.734 31.72C206.774 31.2667 205.867 30.72 205.014 30.08C204.187 29.4133 203.507 28.6 202.974 27.64C202.467 26.6533 202.214 25.4533 202.214 24.04C202.214 22.3333 202.587 20.8533 203.334 19.6C204.107 18.3467 205.187 17.36 206.574 16.64C207.961 15.8933 209.561 15.48 211.374 15.4C213.747 15.4 215.667 15.68 217.134 16.24C218.627 16.8 219.961 17.4667 221.134 18.24L218.934 22.68Z" fill="black"/>
</svg>
