<svg width="173" height="100" viewBox="0 0 173 100" fill="none" xmlns="http://www.w3.org/2000/svg">
<rect x="1" y="37.3896" width="88.1042" height="27.4214" rx="4" fill="black" stroke="url(#paint0_linear_62_117)" stroke-width="2"/>
<rect x="-0.00494105" y="1.30344" width="74.7121" height="73.8943" rx="4" transform="matrix(0.755978 0.654598 -0.760919 0.648847 115.998 0.460943)" stroke="url(#paint1_linear_62_117)" stroke-width="2"/>
<rect x="55.8652" y="37.938" width="27.0313" height="26.3244" fill="black"/>
<rect width="27.3786" height="30.7253" transform="matrix(0.758455 -0.651725 0.758455 0.651725 59.7129 49.3428)" fill="black"/>
<path d="M16.2666 60.062L7.06664 43.022H11.4666L17.7066 56.182L15.4266 56.102L21.1466 43.022H25.3066L16.4666 60.062H16.2666ZM32.6323 43.022L32.9923 47.822L32.7923 47.182C33.2189 46.1687 33.8323 45.3154 34.6323 44.622C35.4589 43.902 36.3123 43.3554 37.1923 42.982C38.0989 42.582 38.8856 42.382 39.5523 42.382L39.3523 46.062C38.0989 45.982 36.9923 46.222 36.0323 46.782C35.0989 47.342 34.3523 48.0887 33.7923 49.022C33.2589 49.9554 32.9923 50.9554 32.9923 52.022V59.582H29.3123V43.022H32.6323ZM47.6713 43.022L47.9913 47.062L47.8313 46.422C48.3647 45.1954 49.2313 44.222 50.4313 43.502C51.6313 42.7554 53.018 42.382 54.5913 42.382C56.1647 42.382 57.4447 42.8487 58.4313 43.782C59.4447 44.6887 59.9647 45.8754 59.9913 47.342V59.582H56.2313V48.662C56.2047 47.7554 55.938 47.022 55.4313 46.462C54.9513 45.8754 54.1913 45.582 53.1513 45.582C52.1913 45.582 51.3247 45.8487 50.5513 46.382C49.778 46.9154 49.1647 47.6487 48.7113 48.582C48.2847 49.5154 48.0713 50.5954 48.0713 51.822V59.582H44.3513V43.022H47.6713Z" fill="white"/>
<rect width="60.9722" height="61.0426" rx="5" transform="matrix(0.755978 0.654598 -0.760919 0.648847 115.008 10.543)" fill="url(#paint2_linear_62_117)"/>
<path d="M87.0999 63.7064C85.5959 63.7064 84.1399 63.5464 82.7319 63.2264C81.3559 62.9064 80.2039 62.5064 79.2759 62.0264C78.3799 61.5464 77.8199 61.0824 77.5959 60.6344C77.7559 59.8344 77.9159 58.6984 78.0759 57.2264C78.2679 55.7224 78.3799 54.6184 78.4119 53.9144C78.7639 53.6264 79.2119 53.4504 79.7559 53.3864C79.8839 55.9464 80.5399 57.9144 81.7239 59.2904C82.9079 60.6344 84.6199 61.3064 86.8599 61.3064C89.1959 61.3064 91.0519 60.6184 92.4279 59.2424C93.8359 57.8664 94.5399 56.1064 94.5399 53.9624C94.5399 52.9064 94.3479 52.0104 93.9639 51.2744C93.6119 50.5064 93.1159 49.8504 92.4759 49.3064C91.8679 48.7304 90.9879 48.0584 89.8359 47.2904C88.2359 46.1704 86.9399 45.1944 85.9479 44.3624C84.9879 43.4984 84.2199 42.5384 83.6439 41.4824C83.0679 40.3944 82.7799 39.1624 82.7799 37.7864C82.7799 36.0264 83.2599 34.5064 84.2199 33.2264C85.2119 31.9144 86.5399 30.9224 88.2039 30.2504C89.8999 29.5464 91.7879 29.1944 93.8679 29.1944C95.8839 29.1944 97.7239 29.4984 99.3879 30.1064C101.052 30.6824 102.108 31.3064 102.556 31.9784C101.276 34.8584 100.524 36.7944 100.3 37.7864C99.8199 37.9784 99.2439 38.0744 98.5719 38.0744C98.9879 36.9544 99.1959 35.9784 99.1959 35.1464C99.1959 33.8664 98.6999 32.8904 97.7079 32.2184C96.7479 31.5464 95.4839 31.2104 93.9159 31.2104C91.6759 31.2104 90.0119 31.8184 88.9239 33.0344C87.8679 34.2504 87.3399 35.6584 87.3399 37.2584C87.3399 38.7944 87.8199 40.0904 88.7799 41.1464C89.7399 42.2024 90.9879 43.1944 92.5239 44.1224C94.1879 45.1464 95.4999 46.0424 96.4599 46.8104C97.4199 47.5464 98.2199 48.4744 98.8599 49.5944C99.5319 50.7144 99.8679 52.0584 99.8679 53.6264C99.8679 55.7064 99.2919 57.5144 98.1399 59.0504C96.9879 60.5544 95.4359 61.7064 93.4839 62.5064C91.5639 63.3064 89.4359 63.7064 87.0999 63.7064ZM133.555 9.94637C135.027 9.94637 136.451 10.2024 137.827 10.7144C139.203 11.2264 140.339 12.0424 141.235 13.1624C142.163 14.2504 142.627 15.6424 142.627 17.3384C142.627 17.7224 142.595 18.1384 142.531 18.5864C142.467 19.0024 142.387 19.3224 142.291 19.5464C140.083 16.3464 136.819 14.7464 132.499 14.7464C130.291 14.7464 128.099 15.6744 125.923 17.5304C123.747 19.3864 121.699 22.1064 119.779 25.6904C117.859 29.2424 116.195 33.4984 114.787 38.4584C113.731 42.2344 112.883 45.3704 112.243 47.8664C111.635 50.3624 110.947 53.3704 110.179 56.8904C112.451 53.7224 114.947 50.5064 117.667 47.2424C120.419 43.9464 122.035 42.2984 122.515 42.2984C122.963 42.2984 123.731 42.5064 124.819 42.9224C125.939 43.3064 126.627 43.7384 126.883 44.2184C124.003 46.3944 120.947 49.0504 117.715 52.1864C117.843 54.9704 118.323 57.0984 119.155 58.5704C119.987 60.0104 121.123 60.7304 122.563 60.7304C123.715 60.7304 125.011 60.2664 126.451 59.3384C127.923 58.4104 129.283 57.1624 130.531 55.5944C131.779 53.9944 132.691 52.2664 133.267 50.4104C133.683 50.4104 133.987 50.5544 134.179 50.8424C134.403 51.0984 134.515 51.4344 134.515 51.8504C134.515 53.0344 133.795 54.5864 132.355 56.5064C130.915 58.4264 129.171 60.1064 127.123 61.5464C125.075 62.9864 123.139 63.7064 121.315 63.7064C119.459 63.7064 117.971 62.9544 116.851 61.4504C115.763 59.9144 115.075 57.8184 114.787 55.1624C112.483 57.5624 110.211 60.1224 107.971 62.8424C107.907 62.9384 107.779 63.1144 107.587 63.3704C107.395 63.6584 107.235 63.8024 107.107 63.8024C106.851 63.8024 106.499 63.5944 106.051 63.1784C105.635 62.7944 105.411 62.4584 105.379 62.1704C105.315 61.2424 105.987 57.5624 107.395 51.1304C108.835 44.6984 110.115 39.4824 111.235 35.4824C112.771 30.0424 114.691 25.4184 116.995 21.6104C119.299 17.7704 121.859 14.8744 124.675 12.9224C127.523 10.9384 130.483 9.94637 133.555 9.94637ZM145.753 43.0664C146.521 43.0664 147.417 43.1624 148.441 43.3544C149.497 43.5144 150.073 43.7864 150.169 44.1704C149.657 46.6664 149.033 49.5624 148.297 52.8584C147.561 56.1544 146.905 58.8584 146.329 60.9704C144.377 68.3304 141.497 74.6344 137.689 79.8824C133.913 85.1304 128.665 87.7544 121.945 87.7544C118.937 87.7544 116.697 87.1944 115.225 86.0744C113.753 84.9864 113.017 83.6264 113.017 81.9944C113.017 80.9064 113.353 79.9304 114.025 79.0664C114.985 80.2824 116.345 81.2904 118.105 82.0904C119.865 82.8904 121.913 83.2904 124.249 83.2904C127.001 83.2904 129.449 82.6024 131.593 81.2264C133.737 79.8504 135.705 77.5144 137.497 74.2184C139.289 70.9224 140.953 66.4264 142.489 60.7304C141.529 61.4024 140.553 61.9784 139.561 62.4584C138.569 62.9064 137.753 63.1304 137.113 63.1304C136.473 63.1304 135.737 62.9384 134.905 62.5544C134.073 62.1384 133.353 61.6104 132.745 60.9704C132.169 60.3304 131.881 59.6584 131.881 58.9544C132.009 58.3144 132.265 56.8584 132.649 54.5864C133.225 50.7144 133.833 47.3544 134.473 44.5064C134.665 43.6104 135.337 43.1624 136.489 43.1624C136.873 43.1624 137.369 43.1944 137.977 43.2584C138.585 43.2904 138.985 43.3384 139.177 43.4024C138.665 45.7384 137.977 49.2904 137.113 54.0584C136.825 55.8504 136.585 57.1784 136.393 58.0424C136.361 58.7464 136.553 59.3384 136.969 59.8184C137.385 60.2664 137.865 60.4904 138.409 60.4904C139.081 60.4904 139.913 60.1704 140.905 59.5304C141.929 58.8584 142.697 58.1864 143.209 57.5144L144.121 52.3304C144.985 47.6264 145.529 44.5384 145.753 43.0664Z" fill="white"/>
<defs>
<linearGradient id="paint0_linear_62_117" x1="90.1042" y1="51.6888" x2="6.41249e-08" y2="51.6888" gradientUnits="userSpaceOnUse">
<stop offset="0.216667" stop-color="#21BEB5"/>
<stop offset="1" stop-color="#44F785"/>
</linearGradient>
<linearGradient id="paint1_linear_62_117" x1="1.76772" y1="72.9818" x2="73.2507" y2="2.85306" gradientUnits="userSpaceOnUse">
<stop offset="0.005865" stop-color="#21BEB5"/>
<stop offset="1" stop-color="#45F982"/>
</linearGradient>
<linearGradient id="paint2_linear_62_117" x1="0.0644691" y1="61.2126" x2="56.0532" y2="4.86092" gradientUnits="userSpaceOnUse">
<stop stop-color="#21BEB5"/>
<stop offset="1" stop-color="#45F982"/>
</linearGradient>
</defs>
</svg>
