<svg width="87" height="85" viewBox="0 0 87 85" fill="none" xmlns="http://www.w3.org/2000/svg">
<path d="M9.4481 45.3221L8.28257 46.913H10.2548H48.4558H50.4281L49.2625 45.3221C46.9218 42.127 43.3115 40.1123 39.6623 38.8953C36.004 37.6753 32.2063 37.2226 29.3553 37.2226C26.5043 37.2226 22.7067 37.6753 19.0484 38.8953C15.3992 40.1123 11.7888 42.127 9.4481 45.3221ZM65.5387 15.3043V16.3043H66.5387H85.0016L78.6571 78.4363C78.3222 81.0784 76.0404 83.1739 73.2709 83.1739H67.5387V77.5217H71.9792H72.8822L72.974 76.6235L78.4537 23.0583L78.5664 21.9565H77.4589H40.9299L40.265 16.3043H58.7106H59.7106V15.3043V1H65.5387V15.3043ZM3.95318 83.1357C2.29206 83.1357 1 81.8403 1 80.2713V77.5217H57.7498V80.2713C57.7498 81.8403 56.4577 83.1357 54.7966 83.1357H3.95318ZM1.02217 52.5652C1.32551 45.78 4.71753 40.6528 9.74527 37.1491C15.0467 33.4547 22.1737 31.5704 29.3553 31.5704C36.5369 31.5704 43.6639 33.4547 48.9654 37.1491C53.9931 40.6528 57.3851 45.78 57.6885 52.5652H1.02217ZM1 62.2174H57.7106V67.8696H1V62.2174Z" fill="black" stroke="white" stroke-width="2"/>
</svg>
