<svg width="88" height="89" viewBox="0 0 88 89" fill="none" xmlns="http://www.w3.org/2000/svg">
<path d="M9.66583 47.6202L8.53861 49.2008H10.48H49.52H51.4614L50.3342 47.6202C47.9489 44.2755 44.2651 42.1615 40.5341 40.8833C36.7956 39.6025 32.9143 39.1272 30 39.1272C27.0857 39.1272 23.2044 39.6025 19.4659 40.8833C15.7349 42.1615 12.0511 44.2755 9.66583 47.6202ZM67 16.0669V17.0669H68H86.8957L80.406 82.3534C80.0587 85.1714 77.7 87.3682 74.88 87.3682H69V81.3347H73.56H74.4654L74.5551 80.4338L80.1551 24.1995L80.2645 23.1004H79.16H41.812L41.1211 17.0669H60H61V16.0669V1H67V16.0669ZM4.04 87.328C2.35622 87.328 1 85.9722 1 84.2711V81.3347H59.04V84.2711C59.04 85.9722 57.6838 87.328 56 87.328H4.04ZM1.02047 55.2343C1.31659 48.0568 4.80194 42.6425 9.95709 38.952C15.3783 35.0712 22.6626 33.0937 30 33.0937C37.3374 33.0937 44.6217 35.0712 50.0429 38.952C55.1981 42.6425 58.6834 48.0568 58.9795 55.2343H1.02047ZM59 65.2678V71.3013H1V65.2678H59Z" fill="white" stroke="#434342" stroke-width="2"/>
</svg>
