<svg width="24" height="18" viewBox="0 0 24 18" fill="none" xmlns="http://www.w3.org/2000/svg">
<path d="M8.57129 7.99984C10.777 7.99984 12.5713 6.35507 12.5713 4.33317C12.5713 2.31127 10.777 0.666504 8.57129 0.666504C6.36558 0.666504 4.57129 2.31127 4.57129 4.33317C4.57129 6.35507 6.36558 7.99984 8.57129 7.99984ZM8.57129 2.76174C9.51986 2.76174 10.2856 3.46365 10.2856 4.33317C10.2856 5.20269 9.51986 5.9046 8.57129 5.9046C7.62272 5.9046 6.857 5.20269 6.857 4.33317C6.857 3.46365 7.62272 2.76174 8.57129 2.76174ZM8.62843 13.2379H3.737C4.86843 12.7141 6.82272 12.1903 8.57129 12.1903C8.697 12.1903 8.83415 12.2008 8.95986 12.2008C9.34843 11.436 10.0227 10.8075 10.8341 10.3046C9.99986 10.1684 9.21129 10.0951 8.57129 10.0951C5.897 10.0951 0.571289 11.3208 0.571289 13.7617V15.3332H8.57129V13.7617C8.57129 13.5836 8.59415 13.4056 8.62843 13.2379ZM17.1427 10.6189C15.0399 10.6189 10.857 11.677 10.857 13.7617V15.3332H23.4284V13.7617C23.4284 11.677 19.2456 10.6189 17.1427 10.6189ZM18.5256 8.71222C19.3941 8.26174 19.9999 7.41317 19.9999 6.42841C19.9999 4.98269 18.7199 3.80936 17.1427 3.80936C15.5656 3.80936 14.2856 4.98269 14.2856 6.42841C14.2856 7.41317 14.8913 8.26174 15.7599 8.71222C16.1713 8.92174 16.6399 9.04746 17.1427 9.04746C17.6456 9.04746 18.1141 8.92174 18.5256 8.71222Z" fill="white"/>
</svg>
